<?xml version="1.0" encoding="UTF-8" standalone="no"?>
<svg
   xmlns:dc="http://purl.org/dc/elements/1.1/"
   xmlns:cc="http://creativecommons.org/ns#"
   xmlns:rdf="http://www.w3.org/1999/02/22-rdf-syntax-ns#"
   xmlns:svg="http://www.w3.org/2000/svg"
   xmlns="http://www.w3.org/2000/svg"
   xmlns:sodipodi="http://sodipodi.sourceforge.net/DTD/sodipodi-0.dtd"
   xmlns:inkscape="http://www.inkscape.org/namespaces/inkscape"
   width="155.73494mm"
   height="68.768486mm"
   viewBox="0 0 155.73494 68.768486"
   version="1.1"
   id="svg8"
   inkscape:version="0.92.4 (5da689c313, 2019-01-14)"
   sodipodi:docname="logo.svg">
  <defs
     id="defs2">
    <rect
       x="44.63401"
       y="79.913589"
       width="95.160164"
       height="44.039646"
       id="rect854" />
    <rect
       x="44.63401"
       y="79.913589"
       width="95.160164"
       height="44.039646"
       id="rect865" />
  </defs>
  <sodipodi:namedview
     id="base"
     pagecolor="#ffffff"
     bordercolor="#666666"
     borderopacity="1.0"
     inkscape:pageopacity="0.0"
     inkscape:pageshadow="2"
     inkscape:zoom="0.98994949"
     inkscape:cx="558.86643"
     inkscape:cy="90.459639"
     inkscape:document-units="mm"
     inkscape:current-layer="layer1"
     inkscape:document-rotation="0"
     showgrid="false"
     inkscape:snap-bbox="true"
     inkscape:bbox-nodes="true"
     inkscape:snap-bbox-edge-midpoints="true"
     inkscape:snap-bbox-midpoints="true"
     inkscape:snap-others="true"
     inkscape:snap-grids="true"
     inkscape:snap-to-guides="true"
     inkscape:snap-global="false"
     inkscape:bbox-paths="true"
     inkscape:object-paths="true"
     inkscape:snap-intersection-paths="true"
     inkscape:snap-smooth-nodes="true"
     inkscape:snap-midpoints="true"
     inkscape:snap-object-midpoints="true"
     inkscape:snap-center="true"
     inkscape:snap-text-baseline="true"
     inkscape:object-nodes="true"
     inkscape:snap-nodes="true"
     inkscape:window-width="1920"
     inkscape:window-height="1017"
     inkscape:window-x="1912"
     inkscape:window-y="-8"
     inkscape:window-maximized="1">
    <inkscape:grid
       type="xygrid"
       id="grid833"
       originx="-68.096193"
       originy="-77.547355" />
  </sodipodi:namedview>
  <metadata
     id="metadata5">
    <rdf:RDF>
      <cc:Work
         rdf:about="">
        <dc:format>image/svg+xml</dc:format>
        <dc:type
           rdf:resource="http://purl.org/dc/dcmitype/StillImage" />
        <dc:title></dc:title>
      </cc:Work>
    </rdf:RDF>
  </metadata>
  <g
     inkscape:label="레이어 1"
     inkscape:groupmode="layer"
     id="layer1"
     style="display:inline;opacity:1"
     transform="translate(-68.096192,-63.68416)">
    <g
       id="g844"
       style="stroke:#ffb900;stroke-opacity:1"
       transform="rotate(0.44827286,-925.47937,-3358.1805)">
      <path
         id="path837"
         style="fill:none;stroke:#ffb900;stroke-width:15.875;stroke-linecap:round;stroke-linejoin:round;stroke-miterlimit:4;stroke-dasharray:none;stroke-opacity:1"
         d="m 153.45436,108.44537 c -10.41627,10.41628 -27.18194,10.53872 -37.44717,0.2735 -10.26522,-10.265228 -10.14278,-27.030896 0.2735,-37.447175 10.41627,-10.416278 27.18195,-10.538731 37.44718,-0.273502 5.13261,5.132614 18.58684,18.586856 18.58684,18.586856 0,0 -13.65221,13.652181 -18.86035,18.860321 z"
         sodipodi:nodetypes="sssscs"
         inkscape:connector-curvature="0" />
      <path
         id="path840"
         style="fill:none;stroke:#ffb900;stroke-width:15.875;stroke-linecap:round;stroke-linejoin:round;stroke-miterlimit:4;stroke-dasharray:none;stroke-opacity:1"
         d="m 191.17506,70.724726 c 10.41627,-10.41628 27.18194,-10.53872 37.44717,-0.2735 10.26522,10.26523 10.14278,27.030898 -0.2735,37.447184 -10.41627,10.41627 -27.18195,10.53873 -37.44718,0.2735 -5.13261,-5.13262 -18.58684,-18.586861 -18.58684,-18.586861 0,0 13.65221,-13.652183 18.86035,-18.860323 z"
         sodipodi:nodetypes="sssscs"
         inkscape:connector-curvature="0" />
    </g>
    <g
       id="g850"
       style="stroke:#fffffe;stroke-width:5.29166985;stroke-miterlimit:4;stroke-dasharray:none;stroke-opacity:1"
       transform="rotate(0.44827286,-925.47937,-3358.1805)">
      <path
         id="path846"
         style="fill:none;stroke:#fffffe;stroke-width:5.29166985;stroke-linecap:round;stroke-linejoin:round;stroke-miterlimit:4;stroke-dasharray:none;stroke-opacity:1"
         d="m 153.45436,108.44537 c -10.41627,10.41628 -27.18194,10.53872 -37.44717,0.2735 -10.26522,-10.265228 -10.14278,-27.030896 0.2735,-37.447175 10.41627,-10.416278 27.18195,-10.538731 37.44718,-0.273502 5.13261,5.132614 18.58684,18.586856 18.58684,18.586856 0,0 -13.65221,13.652181 -18.86035,18.860321 z"
         sodipodi:nodetypes="sssscs"
         inkscape:connector-curvature="0" />
      <path
         id="path848"
         style="fill:none;stroke:#fffffe;stroke-width:5.29166985;stroke-linecap:round;stroke-linejoin:round;stroke-miterlimit:4;stroke-dasharray:none;stroke-opacity:1"
         d="m 191.17506,70.724726 c 10.41627,-10.41628 27.18194,-10.53872 37.44717,-0.2735 10.26522,10.26523 10.14278,27.030898 -0.2735,37.447184 -10.41627,10.41627 -27.18195,10.53873 -37.44718,0.2735 -5.13261,-5.13262 -18.58684,-18.586861 -18.58684,-18.586861 0,0 13.65221,-13.652183 18.86035,-18.860323 z"
         sodipodi:nodetypes="sssscs"
         inkscape:connector-curvature="0" />
    </g>
  </g>
  <g
     inkscape:groupmode="layer"
     id="layer4"
     inkscape:label="레이어 4"
     style="display:inline"
     transform="translate(-68.096192,-63.68416)">
    <path
       id="path869"
       style="display:inline;fill:#ffffff;fill-opacity:1;stroke:#ffb800;stroke-width:5.29166985;stroke-linecap:round;stroke-linejoin:miter;stroke-miterlimit:4;stroke-dasharray:none;stroke-opacity:1"
       d="m 144.11293,106.82446 c -4.35409,-0.0341 -7.85617,-3.59137 -7.8221,-7.945465 0.0341,-4.354101 3.59137,-7.856179 7.94547,-7.822115 2.17706,0.01703 7.8838,0.06168 7.8838,0.06168 0,0 -0.0447,5.706747 -0.0617,7.883798 -0.0341,4.354102 -3.59138,7.856172 -7.94549,7.822102 z"
       sodipodi:nodetypes="ssscss"
       inkscape:connector-curvature="0" />
    <rect
       style="fill:#ffffff;fill-opacity:1;stroke:none;stroke-width:5.29166985;stroke-linecap:round;stroke-linejoin:miter;stroke-miterlimit:4;stroke-dasharray:none;stroke-opacity:1"
       id="rect1025"
       width="7.9375"
       height="5.2916665"
       x="21.732897"
       y="169.00713"
       transform="rotate(-44.551727)" />
  </g>
  <g
     inkscape:groupmode="layer"
     id="layer3"
     inkscape:label="레이어 3"
     style="display:inline"
     transform="translate(-68.096192,-63.68416)">
    <rect
       style="fill:#ffb800;fill-opacity:1;stroke:none;stroke-width:3.86449003;stroke-linecap:round;stroke-linejoin:miter;stroke-miterlimit:4;stroke-dasharray:none;stroke-opacity:1"
       id="rect872"
       width="5.2916665"
       height="10.583333"
       x="137.25714"
       y="-40.253735"
       transform="rotate(45.448273)" />
    <rect
       style="fill:#ffb800;fill-opacity:1;stroke:none;stroke-width:3.86449003;stroke-linecap:round;stroke-linejoin:miter;stroke-miterlimit:4;stroke-dasharray:none;stroke-opacity:1"
       id="rect874"
       width="5.2916665"
       height="10.583333"
       x="147.84045"
       y="-40.253735"
       transform="rotate(45.448273)" />
    <rect
       style="fill:#ffb800;fill-opacity:1;stroke:none;stroke-width:3.86449003;stroke-linecap:round;stroke-linejoin:miter;stroke-miterlimit:4;stroke-dasharray:none;stroke-opacity:1"
       id="rect893"
       width="5.2916665"
       height="10.583333"
       x="190.1738"
       y="-40.253731"
       transform="rotate(45.448273)" />
    <rect
       style="fill:#ffb800;fill-opacity:1;stroke:none;stroke-width:3.86449003;stroke-linecap:round;stroke-linejoin:miter;stroke-miterlimit:4;stroke-dasharray:none;stroke-opacity:1"
       id="rect895"
       width="5.2916665"
       height="10.583333"
       x="200.75714"
       y="-40.253731"
       transform="rotate(45.448273)" />
    <rect
       style="fill:#ffb800;fill-opacity:1;stroke:none;stroke-width:3.86449003;stroke-linecap:round;stroke-linejoin:miter;stroke-miterlimit:4;stroke-dasharray:none;stroke-opacity:1"
       id="rect945"
       width="5.2916665"
       height="10.583333"
       x="0.56621748"
       y="166.3613"
       transform="rotate(-44.551727)" />
    <rect
       style="fill:#ffb800;fill-opacity:1;stroke:none;stroke-width:3.86449003;stroke-linecap:round;stroke-linejoin:miter;stroke-miterlimit:4;stroke-dasharray:none;stroke-opacity:1"
       id="rect947"
       width="5.2916665"
       height="10.583333"
       x="11.14953"
       y="166.3613"
       transform="rotate(-44.551727)" />
    <rect
       style="fill:#ffb800;fill-opacity:1;stroke:none;stroke-width:3.86449003;stroke-linecap:round;stroke-linejoin:miter;stroke-miterlimit:4;stroke-dasharray:none;stroke-opacity:1"
       id="rect949"
       width="5.2916665"
       height="10.583333"
       x="21.732874"
       y="166.3613"
       transform="rotate(-44.551727)" />
    <rect
       style="fill:#ffb800;fill-opacity:1;stroke:none;stroke-width:3.86449003;stroke-linecap:round;stroke-linejoin:miter;stroke-miterlimit:4;stroke-dasharray:none;stroke-opacity:1"
       id="rect955"
       width="5.2916665"
       height="10.583333"
       x="53.482883"
       y="166.3613"
       transform="rotate(-44.551727)" />
    <rect
       style="fill:#ffb800;fill-opacity:1;stroke:none;stroke-width:3.86449003;stroke-linecap:round;stroke-linejoin:miter;stroke-miterlimit:4;stroke-dasharray:none;stroke-opacity:1"
       id="rect957"
       width="5.2916665"
       height="10.583333"
       x="64.066223"
       y="166.3613"
       transform="rotate(-44.551727)" />
  </g>
  <g
     inkscape:groupmode="layer"
     id="layer2"
     inkscape:label="레이어 2"
     style="display:inline"
     transform="translate(-68.096192,-63.68416)">
    <g
       aria-label="UNI"
       transform="translate(-15.009646,-1.3211069)"
       id="text852"
       style="font-size:35.27780151px;line-height:1.25;font-family:Consolas;-inkscape-font-specification:Consolas;white-space:pre;shape-inside:url(#rect854);opacity:1">
      <path
         d="m 99.504503,102.2383 q 0,2.15318 -0.585667,3.7896 -0.568441,1.6192 -1.653647,2.70441 -1.06798,1.0852 -2.618274,1.63642 -1.550294,0.55121 -3.479549,0.55121 -2.170411,0 -3.720705,-0.55121 -1.550294,-0.55122 -2.514922,-1.58475 -0.964627,-1.03353 -1.395264,-2.51492 -0.430637,-1.48139 -0.430637,-3.32452 V 88.010042 h 4.23747 v 14.676118 q 0,1.13688 0.18948,2.01538 0.206706,0.8785 0.68902,1.49862 0.499539,0.60289 1.240235,0.91295 0.740696,0.31006 1.860353,0.31006 1.050755,0 1.774225,-0.25838 0.723471,-0.27561 1.205784,-0.86128 0.482314,-0.60289 0.723471,-1.53307 0.241157,-0.93017 0.241157,-2.25654 V 88.010042 h 4.23747 z"
         style="font-style:normal;font-variant:normal;font-weight:bold;font-stretch:normal;font-size:35.27780151px;font-family:Consolas;-inkscape-font-specification:'Consolas Bold';text-align:end;text-anchor:end"
         id="path863"
         inkscape:connector-curvature="0" />
      <path
         d="m 113.74998,110.52376 -6.02892,-13.435885 -1.24023,-2.893882 v 9.336217 6.99355 h -3.85851 V 88.010042 h 5.20209 l 6.1495,13.522008 1.08521,2.6355 v -9.939106 -6.218402 h 3.85851 v 22.513718 z"
         style="font-style:normal;font-variant:normal;font-weight:bold;font-stretch:normal;font-size:35.27780151px;font-family:Consolas;-inkscape-font-specification:'Consolas Bold';text-align:end;text-anchor:end"
         id="path865"
         inkscape:connector-curvature="0" />
      <path
         d="m 122.98284,91.472366 v -3.462324 h 14.22826 v 3.462324 h -4.96094 v 15.554614 h 4.96094 v 3.49678 h -14.22826 v -3.49678 h 4.96095 V 91.472366 Z"
         style="font-style:normal;font-variant:normal;font-weight:bold;font-stretch:normal;font-size:35.27780151px;font-family:Consolas;-inkscape-font-specification:'Consolas Bold';text-align:end;text-anchor:end"
         id="path867"
         inkscape:connector-curvature="0" />
    </g>
    <g
       aria-label="xMD"
       transform="translate(84.949154,-1.3211069)"
       id="text863"
       style="font-size:35.27780151px;line-height:1.25;font-family:Consolas;-inkscape-font-specification:Consolas;white-space:pre;shape-inside:url(#rect865);opacity:1">
      <path
         d="m 95.267033,110.52376 -3.996314,-5.89112 -4.013539,5.89112 h -5.081519 l 6.562911,-8.81945 -6.218401,-8.68165 h 5.11597 l 3.927412,5.753313 3.875735,-5.753313 h 4.719782 l -6.02892,8.6472 6.35621,8.8539 z"
         style="font-style:normal;font-variant:normal;font-weight:bold;font-stretch:normal;font-size:35.27780151px;font-family:Consolas;-inkscape-font-specification:'Consolas Bold';text-align:end;text-anchor:end"
         id="path870"
         inkscape:connector-curvature="0" />
      <path
         d="m 115.88594,110.52376 -0.41341,-12.72964 -0.15503,-5.081519 -1.0852,3.445098 -2.4977,7.665341 h -2.65272 l -2.25654,-7.665341 -0.94741,-3.445098 -0.12057,4.978166 -0.37897,12.832993 h -3.60012 l 1.10243,-22.513718 h 4.78868 l 1.98094,6.390657 0.9474,3.600127 0.9474,-3.393421 2.08428,-6.597363 h 4.87482 l 1.11965,22.513718 z"
         style="font-style:normal;font-variant:normal;font-weight:bold;font-stretch:normal;font-size:35.27780151px;font-family:Consolas;-inkscape-font-specification:'Consolas Bold';text-align:end;text-anchor:end"
         id="path872"
         inkscape:connector-curvature="0" />
      <path
         d="m 138.88197,98.982679 q 0,2.618271 -0.65457,4.754231 -0.63734,2.13596 -2.01538,3.65181 -1.36081,1.49862 -3.49677,2.32544 -2.13596,0.8096 -5.11597,0.8096 h -5.71887 V 88.010042 h 6.66627 q 2.58382,0 4.51308,0.654569 1.94648,0.637343 3.23839,1.980931 1.29191,1.343588 1.92925,3.410647 0.65457,2.067059 0.65457,4.92649 z m -4.54753,0.275608 q 0,-1.825902 -0.29283,-3.255618 -0.29283,-1.429715 -0.99908,-2.411568 -0.68902,-0.999079 -1.86035,-1.515843 -1.17134,-0.516765 -2.91111,-0.516765 h -2.15319 v 15.416817 h 1.86036 q 3.11781,0 4.73701,-1.86036 1.61919,-1.86035 1.61919,-5.856663 z"
         style="font-style:normal;font-variant:normal;font-weight:bold;font-stretch:normal;font-size:35.27780151px;font-family:Consolas;-inkscape-font-specification:'Consolas Bold';text-align:end;text-anchor:end"
         id="path874"
         inkscape:connector-curvature="0" />
    </g>
  </g>
</svg>
